<svg width="29" height="29" viewBox="0 0 29 29" fill="none" xmlns="http://www.w3.org/2000/svg">
<path d="M20.346 5.54096L23.4593 8.65423M22.3475 2.79828L13.9253 11.2204C13.4902 11.655 13.1934 12.2086 13.0724 12.8116L12.2944 16.7058L16.1886 15.9264C16.7915 15.8058 17.3445 15.5102 17.7798 15.0749L26.2019 6.65273C26.455 6.39965 26.6558 6.09919 26.7927 5.76852C26.9297 5.43784 27.0002 5.08343 27.0002 4.72551C27.0002 4.36759 26.9297 4.01318 26.7927 3.6825C26.6558 3.35183 26.455 3.05137 26.2019 2.79828C25.9488 2.5452 25.6484 2.34444 25.3177 2.20747C24.987 2.0705 24.6326 2 24.2747 2C23.9168 2 23.5624 2.0705 23.2317 2.20747C22.901 2.34444 22.6006 2.5452 22.3475 2.79828Z" stroke="#00B152" stroke-width="4" stroke-linecap="round" stroke-linejoin="round"/>
<path d="M24.059 19.647V24.0588C24.059 24.8388 23.7492 25.5869 23.1976 26.1385C22.646 26.6901 21.8979 27 21.1178 27H4.94121C4.16115 27 3.41304 26.6901 2.86146 26.1385C2.30988 25.5869 2 24.8388 2 24.0588V7.88212C2 7.10207 2.30988 6.35396 2.86146 5.80238C3.41304 5.25079 4.16115 4.94092 4.94121 4.94092H9.35302" stroke="#00B152" stroke-width="4" stroke-linecap="round" stroke-linejoin="round"/>
</svg>
