<svg width="35" height="35" viewBox="0 0 35 35" fill="none" xmlns="http://www.w3.org/2000/svg">
<path d="M16.0415 24.7916H18.9582V16.0416H16.0415V24.7916ZM17.4998 13.125C17.913 13.125 18.2596 12.985 18.5396 12.705C18.8196 12.425 18.9591 12.0788 18.9582 11.6666C18.9582 11.2534 18.8182 10.9073 18.5382 10.6283C18.2582 10.3493 17.9121 10.2093 17.4998 10.2083C17.0866 10.2083 16.7405 10.3483 16.4615 10.6283C16.1825 10.9083 16.0425 11.2544 16.0415 11.6666C16.0415 12.0798 16.1815 12.4264 16.4615 12.7064C16.7415 12.9864 17.0876 13.1259 17.4998 13.125ZM17.4998 32.0833C15.4825 32.0833 13.5866 31.7002 11.8123 30.9341C10.038 30.168 8.49463 29.1292 7.18213 27.8177C5.86963 26.5052 4.83081 24.9618 4.06567 23.1875C3.30053 21.4132 2.91748 19.5173 2.9165 17.5C2.9165 15.4826 3.29956 13.5868 4.06567 11.8125C4.83178 10.0382 5.8706 8.49475 7.18213 7.18225C8.49463 5.86975 10.038 4.83093 11.8123 4.06579C13.5866 3.30065 15.4825 2.9176 17.4998 2.91663C19.5172 2.91663 21.413 3.29968 23.1873 4.06579C24.9616 4.8319 26.505 5.87072 27.8175 7.18225C29.13 8.49475 30.1694 10.0382 30.9355 11.8125C31.7016 13.5868 32.0841 15.4826 32.0832 17.5C32.0832 19.5173 31.7001 21.4132 30.934 23.1875C30.1679 24.9618 29.1291 26.5052 27.8175 27.8177C26.505 29.1302 24.9616 30.1695 23.1873 30.9356C21.413 31.7017 19.5172 32.0843 17.4998 32.0833Z" fill="#E7AE0E"/>
</svg>
