<svg width="32" height="32" viewBox="0 0 32 32" fill="none" xmlns="http://www.w3.org/2000/svg">
<g id="GantiPass(icon)">
<g id="Group">
<path id="Vector" fill-rule="evenodd" clip-rule="evenodd" d="M20.9066 7.13068C20.3901 7.12998 19.8785 7.23102 19.401 7.42805C18.9235 7.62507 18.4895 7.91421 18.1238 8.27895C17.758 8.6437 17.4677 9.07692 17.2694 9.55386C17.0711 10.0308 16.9687 10.5421 16.968 11.0587C16.9688 11.5752 17.0714 12.0865 17.2699 12.5634C17.4684 13.0403 17.7589 13.4734 18.1247 13.838C18.4906 14.2026 18.9247 14.4916 19.4022 14.6885C19.8798 14.8854 20.3914 14.9862 20.908 14.9853C21.9509 14.9868 22.9517 14.5739 23.6903 13.8375C24.4289 13.1012 24.8449 12.1016 24.8466 11.0587C24.8459 10.5421 24.7435 10.0308 24.5452 9.55386C24.3469 9.07692 24.0565 8.6437 23.6908 8.27895C23.3251 7.91421 22.8911 7.62507 22.4136 7.42805C21.9361 7.23102 21.4232 7.12998 20.9066 7.13068ZM18.968 11.0587C18.9687 10.8047 19.0194 10.5533 19.1173 10.3189C19.2152 10.0845 19.3583 9.87174 19.5385 9.69269C19.7186 9.51365 19.9323 9.37185 20.1673 9.27542C20.4023 9.17899 20.654 9.1298 20.908 9.13068C21.9826 9.13068 22.8466 9.99735 22.8466 11.0587C22.8449 11.5712 22.6397 12.062 22.2761 12.4233C21.9126 12.7846 21.4205 12.9868 20.908 12.9853C20.3954 12.9868 19.9033 12.7846 19.5398 12.4233C19.1763 12.062 18.9711 11.5712 18.9693 11.0587H18.968Z" fill="white"/>
<path id="Vector_2" fill-rule="evenodd" clip-rule="evenodd" d="M12.7066 27.8374C13.0925 27.315 13.2949 26.6799 13.2826 26.0307C13.8053 26.1854 14.3226 26.204 14.8186 26.1107C15.8426 25.916 16.6013 25.268 17.004 24.7347L17.0106 24.7254L17.0173 24.716C17.2976 24.3334 17.4903 23.8937 17.5815 23.4282C17.6728 22.9627 17.6604 22.4829 17.5453 22.0227C17.448 21.6213 17.2858 21.2385 17.0653 20.8894C16.9638 20.702 16.8422 20.5263 16.7026 20.3654L16.7146 20.352L17.3333 19.736C17.8426 19.98 18.3946 20.1334 18.8773 20.2334C19.5457 20.3705 20.2257 20.4428 20.908 20.4494C26.1093 20.4494 30.3333 16.2494 30.3333 11.0574C30.3333 5.86802 26.1093 1.66669 20.9066 1.66669C15.7066 1.66669 11.4813 5.86669 11.4813 11.0574C11.4871 12.2686 11.7459 13.4653 12.2413 14.5707L2.56664 24.2054C2.11498 24.6622 1.81355 25.246 1.70264 25.8787C1.57064 26.6827 1.78664 27.5774 2.56664 28.3534L3.74264 29.524C4.20848 29.9347 4.78136 30.2048 5.39464 30.3027C5.81338 30.3673 6.24153 30.3303 6.64298 30.1948C7.04443 30.0593 7.4074 29.8292 7.7013 29.524L8.45597 28.772C9.10619 29.1522 9.87246 29.283 10.612 29.14C11.4373 28.9764 12.1758 28.5205 12.692 27.856L12.7 27.8467L12.7066 27.8374ZM13.4813 11.0574C13.4813 6.98002 16.8026 3.66669 20.908 3.66669C25.012 3.66669 28.3333 6.98002 28.3333 11.0574C28.3333 15.1374 25.0133 18.4494 20.9066 18.4494C20.544 18.4494 19.916 18.4054 19.2826 18.276C18.62 18.1374 18.1 17.9334 17.8226 17.7027C17.631 17.5441 17.387 17.4626 17.1385 17.4742C16.89 17.4858 16.6547 17.5896 16.4786 17.7654L15.3026 18.936C15.0346 19.2027 14.776 19.5067 14.6386 19.8574C14.4653 20.3014 14.5213 20.728 14.7186 21.084C14.836 21.2934 15.0253 21.4934 15.104 21.5774L15.1306 21.6054C15.224 21.708 15.2733 21.7747 15.3106 21.8494L15.3466 21.92L15.3866 21.976L15.396 21.9894C15.4885 22.144 15.5572 22.3116 15.6 22.4867C15.672 22.792 15.672 23.1534 15.4 23.54C15.1612 23.846 14.8239 24.0599 14.4453 24.1454C14.1026 24.2107 13.5426 24.168 12.796 23.4254C12.6085 23.2385 12.3546 23.1336 12.09 23.1336C11.8253 23.1336 11.5714 23.2385 11.384 23.4254L10.992 23.8147C10.8108 23.9948 10.7054 24.2375 10.6974 24.4929C10.6895 24.7483 10.7796 24.997 10.9493 25.188C11.0636 25.3422 11.1536 25.5131 11.216 25.6947C11.316 25.9947 11.332 26.316 11.088 26.6627C10.928 26.8694 10.604 27.1054 10.236 27.1747C9.92397 27.2347 9.52397 27.1907 9.0733 26.7414C8.88586 26.5545 8.63198 26.4496 8.3673 26.4496C8.10263 26.4496 7.84875 26.5545 7.6613 26.7414L6.2893 28.108C6.0693 28.3267 5.87597 28.352 5.68664 28.324C5.48082 28.2878 5.28684 28.2022 5.1213 28.0747L3.97864 26.936C3.65997 26.62 3.64797 26.376 3.67597 26.2027C3.71888 25.9838 3.82397 25.782 3.97864 25.6214L14.1706 15.4707C14.3303 15.3114 14.4312 15.1026 14.4566 14.8785C14.4821 14.6544 14.4306 14.4283 14.3106 14.2374L14.308 14.2334C14.2687 14.1683 14.2322 14.1015 14.1986 14.0334C13.7328 13.1101 13.4873 12.0914 13.4813 11.0574ZM10.9346 25.168C10.9346 25.1707 10.9373 25.172 10.94 25.1747L10.9386 25.1734L10.9346 25.168Z" fill="white"/>
</g>
</g>
</svg>
