<svg width="46" height="46" viewBox="0 0 46 46" fill="none" xmlns="http://www.w3.org/2000/svg">
<g clip-path="url(#clip0_74_241)">
<path d="M38.3333 34.5C38.8219 34.5005 39.2917 34.6876 39.647 35.0229C40.0022 35.3583 40.216 35.8166 40.2446 36.3043C40.2732 36.792 40.1145 37.2722 39.801 37.6468C39.4874 38.0214 39.0427 38.2622 38.5576 38.3199L38.3333 38.3333H7.66667C7.17815 38.3328 6.70827 38.1457 6.35304 37.8103C5.99782 37.475 5.78405 37.0166 5.75542 36.529C5.72679 36.0413 5.88546 35.5611 6.19901 35.1864C6.51256 34.8118 6.95732 34.5711 7.44242 34.5134L7.66667 34.5H38.3333ZM38.3333 21.0833C38.8417 21.0833 39.3292 21.2852 39.6886 21.6447C40.0481 22.0041 40.25 22.4916 40.25 23C40.25 23.5083 40.0481 23.9958 39.6886 24.3552C39.3292 24.7147 38.8417 24.9166 38.3333 24.9166H7.66667C7.15833 24.9166 6.67082 24.7147 6.31138 24.3552C5.95193 23.9958 5.75 23.5083 5.75 23C5.75 22.4916 5.95193 22.0041 6.31138 21.6447C6.67082 21.2852 7.15833 21.0833 7.66667 21.0833H38.3333ZM38.3333 7.66663C38.8417 7.66663 39.3292 7.86856 39.6886 8.228C40.0481 8.58745 40.25 9.07496 40.25 9.58329C40.25 10.0916 40.0481 10.5791 39.6886 10.9386C39.3292 11.298 38.8417 11.5 38.3333 11.5H7.66667C7.15833 11.5 6.67082 11.298 6.31138 10.9386C5.95193 10.5791 5.75 10.0916 5.75 9.58329C5.75 9.07496 5.95193 8.58745 6.31138 8.228C6.67082 7.86856 7.15833 7.66663 7.66667 7.66663H38.3333Z" fill="#E7AE0E"/>
</g>
<defs>
<clipPath id="clip0_74_241">
<rect width="46" height="46" fill="white"/>
</clipPath>
</defs>
</svg>
