<svg width="24" height="30" viewBox="0 0 24 30" fill="none" xmlns="http://www.w3.org/2000/svg">
<g id="peminjaman(icon)">
<path id="2" d="M0 3C0 2.20435 0.31607 1.44129 0.87868 0.87868C1.44129 0.31607 2.20435 0 3 0H15C15.3978 8.49561e-05 15.7793 0.158176 16.0605 0.4395L23.5605 7.9395C23.8418 8.22074 23.9999 8.60221 24 9V27C24 27.7956 23.6839 28.5587 23.1213 29.1213C22.5587 29.6839 21.7956 30 21 30H3C2.20435 30 1.44129 29.6839 0.87868 29.1213C0.31607 28.5587 0 27.7956 0 27V3ZM20.379 9L15 3.621V9H20.379ZM12 3H3V27H21V12H13.5C13.1022 12 12.7206 11.842 12.4393 11.5607C12.158 11.2794 12 10.8978 12 10.5V3ZM12 15C12.3978 15 12.7794 15.158 13.0607 15.4393C13.342 15.7206 13.5 16.1022 13.5 16.5V18H15C15.3978 18 15.7794 18.158 16.0607 18.4393C16.342 18.7206 16.5 19.1022 16.5 19.5C16.5 19.8978 16.342 20.2794 16.0607 20.5607C15.7794 20.842 15.3978 21 15 21H13.5V22.5C13.5 22.8978 13.342 23.2794 13.0607 23.5607C12.7794 23.842 12.3978 24 12 24C11.6022 24 11.2206 23.842 10.9393 23.5607C10.658 23.2794 10.5 22.8978 10.5 22.5V21H9C8.60218 21 8.22064 20.842 7.93934 20.5607C7.65804 20.2794 7.5 19.8978 7.5 19.5C7.5 19.1022 7.65804 18.7206 7.93934 18.4393C8.22064 18.158 8.60218 18 9 18H10.5V16.5C10.5 16.1022 10.658 15.7206 10.9393 15.4393C11.2206 15.158 11.6022 15 12 15Z" fill="white"/>
</g>
</svg>
