<svg width="32" height="32" viewBox="0 0 32 32" fill="none" xmlns="http://www.w3.org/2000/svg">
<g id="inventaris(icon)">
<path id="Vector" d="M6.66669 29.3333C5.93335 29.3333 5.30535 29.072 4.78269 28.5493C4.26002 28.0266 3.99913 27.3991 4.00002 26.6666V11.6333C3.60002 11.3889 3.2778 11.072 3.03335 10.6826C2.78891 10.2933 2.66669 9.84352 2.66669 9.33329V5.33329C2.66669 4.59996 2.92802 3.97196 3.45069 3.44929C3.97335 2.92663 4.60091 2.66574 5.33335 2.66663H26.6667C27.4 2.66663 28.028 2.92796 28.5507 3.45063C29.0734 3.97329 29.3342 4.60085 29.3334 5.33329V9.33329C29.3334 9.84441 29.2111 10.2942 28.9667 10.6826C28.7222 11.0711 28.4 11.388 28 11.6333V26.6666C28 27.4 27.7387 28.028 27.216 28.5506C26.6934 29.0733 26.0658 29.3342 25.3334 29.3333H6.66669ZM6.66669 12V26.6666H25.3334V12H6.66669ZM5.33335 9.33329H26.6667V5.33329H5.33335V9.33329ZM12 18.6666H20V16H12V18.6666Z" fill="white"/>
</g>
</svg>
